<?xml version="1.0" encoding="utf-8"?>
<!-- Generator: Adobe Illustrator 24.1.3, SVG Export Plug-In . SVG Version: 6.00 Build 0)  -->
<svg version="1.1" id="Layer_1" xmlns="http://www.w3.org/2000/svg" xmlns:xlink="http://www.w3.org/1999/xlink" x="0px" y="0px"
	 viewBox="0 0 300 98" style="enable-background:new 0 0 300 98;" xml:space="preserve">
<style type="text/css">
	.st0{fill:#EE4382;}
	.st1{fill:#F7C815;}
	.st2{fill:#203862;}
	.st3{fill:#FFFFFF;}
</style>
<g>
	<circle class="st0" cx="249.1" cy="53.45" r="34.48"/>
	<circle class="st1" cx="262.81" cy="48.81" r="34.48"/>
	<circle class="st2" cx="250.18" cy="44.55" r="34.48"/>
	<path class="st3" d="M252.88,36.44c1.78-0.06,3.55-0.12,5.33-0.18c1.53,4.18,3.07,8.36,4.6,12.55c1.47-4.09,2.95-8.18,4.42-12.28
		c1.87-0.03,3.74-0.06,5.61-0.09c-2.44,6.55-4.88,13.09-7.32,19.64c-1.9,0-3.79,0-5.69,0C257.52,49.53,255.2,42.99,252.88,36.44z"/>
	<path class="st3" d="M232.47,31.51c0,5.6,0,11.19,0,16.79c0.12,0.57,1.02,4.58,4.94,6.68c3.31,1.78,6.52,0.98,7.22,0.78
		c0.73-0.16,3.66-0.89,5.72-3.73c1.8-2.48,1.83-5.07,1.81-5.9c-1.72,0.02-3.45,0.04-5.18,0.06c0.05,0-0.08,1.07-0.1,1.13
		c-0.4,1.93-1.92,3.31-3.87,3.53c-1.27,0.14-2.54-0.19-3.59-0.92c-1.26-0.87-1.79-1.78-1.81-3.3c0-0.42,0.07-4.94-0.01-4.94
		c4.03,0.06,8.06-0.13,12.1-0.07c-0.02-1.73-0.04-3.45-0.06-5.18c-4.03,0.04-8.06,0.08-12.1,0.12c0-1.68,0-3.37,0-5.05
		C235.94,31.51,234.08,31.51,232.47,31.51z"/>
	<g>
		<g>
			<path class="st3" d="M2.71,47.93c0.22-0.97,0.42-1.94,0.67-2.9c3.58-13.28,19.41-18.74,30.4-10.48c0.53,0.4,1.05,0.83,1.62,1.28
				c0.23-0.17,0.46-0.33,0.68-0.51c11.34-9.57,28.54-3.73,31.64,10.78c0.28,1.33,0.37,2.73,0.38,4.1
				c0.04,9.77,0.04,19.54,0.05,29.32c-4.18,0-8.36,0-12.54,0c0.01-9.94,0.03-19.88,0.04-29.83c0-3.97-3.79-7.24-7.73-6.71
				c-3.84,0.52-6.27,3.34-6.28,7.34c-0.02,6.85,0,13.7-0.01,20.55c0,2.88-0.04,5.76-0.06,8.64c-4.1,0-8.19,0-12.29,0
				c-0.01-0.54-0.04-1.08-0.04-1.63c0-8.98,0.01-17.96-0.02-26.94c0-1.07-0.11-2.19-0.43-3.2c-0.99-3.15-4.25-5.19-7.39-4.75
				c-3.37,0.47-6.16,3.09-6.17,6.08c-0.05,10.15,0,20.3,0.01,30.45c-4.17,0-8.33,0-12.54,0C2.71,68.99,2.71,58.46,2.71,47.93z"/>
			<path class="st3" d="M156.91,17.84c0,4.21,0,8.42,0,12.75c10.03,0,19.96,0,30,0c0,4.19,0,8.25,0,12.43c-9.96,0-19.89,0-29.97,0
				c-0.02,0.52-0.06,0.92-0.06,1.31c0,3.55-0.01,7.1,0,10.66c0.03,6.41,4.95,11.72,11.12,12.01c6.73,0.32,12.07-4.17,12.79-10.77
				c0.07-0.62,0.09-1.15,0.96-1.14c3.64,0.03,7.27,0.02,10.91,0.03c0.16,0,0.31,0.07,0.57,0.13c0.17,2.72-0.3,5.34-1.26,7.84
				c-3.54,9.26-10.21,14.7-20.06,16.18c-0.33,0.05-0.64,0.16-0.96,0.25c-1.42,0-2.84,0-4.26,0c-1.1-0.21-2.2-0.39-3.29-0.65
				c-11.1-2.6-18.81-12.16-18.96-23.59c-0.07-5.63-0.01-11.27-0.02-16.91c-0.01-6.85-0.03-13.69-0.04-20.54
				C148.55,17.84,152.73,17.84,156.91,17.84z"/>
			<path class="st3" d="M95.48,79.52c-1.22-0.24-2.45-0.44-3.67-0.73C80.98,76.2,73.31,66.73,73.17,55.62
				c-0.1-7.98-0.02-15.96-0.02-23.94c0-0.29,0.04-0.57,0.07-0.95c4.06,0,8.09,0,12.24,0c0.03,0.54,0.08,1.07,0.08,1.59
				c0.01,7.39-0.02,14.79,0.01,22.18c0.02,5.99,3.29,10.48,8.68,12.05c7.6,2.21,15.24-3.41,15.3-11.33
				c0.06-7.64,0.02-15.29,0.02-22.93c0-0.49,0-0.99,0-1.57c4.16,0,8.23,0,12.46,0c0,0.46,0,0.91,0,1.35c0,7.52,0.01,15.04,0,22.56
				c-0.02,12.34-8.1,22.12-20.21,24.47c-0.69,0.13-1.38,0.27-2.07,0.41C98.33,79.52,96.9,79.52,95.48,79.52z"/>
			<path class="st3" d="M127.08,79.52c-0.02-0.42-0.06-0.83-0.06-1.25c0-19.73,0-39.46,0-59.19c0-0.42,0.04-0.83,0.06-1.25
				c4.1,0,8.19,0,12.29,0c0.02,0.42,0.06,0.83,0.06,1.25c0,19.73,0,39.46,0,59.19c0,0.42-0.04,0.83-0.06,1.25
				C135.27,79.52,131.17,79.52,127.08,79.52z"/>
			<path class="st3" d="M198.28,79.52c0.01-6.76,0.03-13.52,0.03-20.28c0.01-7.93,0-15.86,0-23.79c0-0.5,0-1,0-1.81
				c4.21,0,8.35,0,12.5,0c0,15.29,0,30.59,0,45.88C206.64,79.52,202.46,79.52,198.28,79.52z"/>
			<path class="st3" d="M210.82,30.63c-3.63-0.03-7.25-0.05-10.88-0.08c-0.49,0-0.98,0-1.66,0c0-4.32,0-8.51,0-12.71
				c4.18,0,8.36,0,12.54,0C210.82,22.11,210.82,26.37,210.82,30.63z"/>
		</g>
	</g>
</g>
</svg>
