<?xml version="1.0" encoding="UTF-8"?>
<svg xmlns="http://www.w3.org/2000/svg" viewBox="0 0 1176.71 384.61">
  <g id="uuid-df3cd997-5b58-402f-8f00-c3df536dc2b8" data-name="logo">
    <g id="uuid-4a824e88-5d74-4673-a782-fc331d99a7dc" data-name="Layer 5 Image">
      <circle cx="984.53" cy="173.02" r="137.5" style="fill: #fc3e82;"/>
      <circle cx="1039.21" cy="154.5" r="137.5" style="fill: #f8c70c;"/>
      <circle cx="988.85" cy="137.5" r="137.5" style="fill: #203761;"/>
    </g>
    <g id="uuid-86c6a6c8-a981-4c03-83f0-56f631b08303" data-name="Layer 6 Image">
      <path d="m999.61,105.18c7.08-.24,14.16-.48,21.24-.72l18.36,50.04,17.64-48.96c7.45-.12,14.91-.24,22.36-.36-9.73,26.11-19.47,52.21-29.2,78.32h-22.68c-9.24-26.11-18.48-52.21-27.72-78.32Z" style="fill: #fff;"/>
      <path d="m918.21,85.5v66.96c.48,2.28,4.08,18.26,19.72,26.64,13.22,7.08,25.99,3.89,28.8,3.12,2.92-.64,14.61-3.57,22.8-14.88,7.18-9.91,7.3-20.22,7.2-23.52-6.88.08-13.76.16-20.64.24.21,0-.33,4.25-.39,4.52-1.59,7.7-7.65,13.2-15.45,14.08-5.07.57-10.12-.78-14.3-3.67-5.03-3.48-7.16-7.11-7.21-13.17-.02-1.66.28-19.71-.04-19.72,16.08.24,32.16-.52,48.24-.28-.08-6.88-.16-13.76-.24-20.64-16.08.16-32.16.32-48.24.48v-20.16h-20.24Z" style="fill: #fff;"/>
    </g>
    <g id="uuid-d1ef2819-040e-48ef-858f-e9f538a4a2f6" data-name="Layer 7 Image">
      <g>
        <path d="m1.85,151c.89-3.86,1.66-7.75,2.69-11.57,14.27-52.97,77.42-74.73,121.26-41.8,2.12,1.6,4.17,3.29,6.46,5.11.92-.69,1.84-1.31,2.69-2.03,45.24-38.19,113.83-14.87,126.19,43.01,1.14,5.32,1.48,10.9,1.51,16.36.17,38.97.16,77.95.21,116.92h-50c.05-39.65.14-79.3.15-118.95,0-15.81-15.13-28.89-30.82-26.75-15.3,2.09-25.01,13.32-25.05,29.26-.07,27.32,0,54.65-.03,81.97-.02,11.49-.16,22.98-.25,34.47h-49c-.06-2.16-.16-4.33-.16-6.49-.01-35.82.05-71.64-.08-107.46-.02-4.27-.45-8.73-1.72-12.78-3.93-12.57-16.93-20.7-29.46-18.95-13.45,1.88-24.57,12.32-24.62,24.23-.18,40.48,0,80.96.04,121.44H1.85c0-42,0-84,0-126Z" style="fill: #203761;"/>
        <path d="m616.85,31v50.86h119.65v49.59h-119.52c-.09,2.06-.23,3.65-.23,5.24-.02,14.17-.06,28.33,0,42.5.1,25.57,19.74,46.73,44.37,47.9,26.83,1.27,48.12-16.64,51-42.96.27-2.45.38-4.57,3.81-4.54,14.5.12,29,.07,43.5.12.63,0,1.25.28,2.27.52.7,10.86-1.19,21.29-5.01,31.25-14.13,36.94-40.72,58.65-80,64.53-1.3.19-2.56.65-3.83.99h-17c-4.38-.86-8.79-1.57-13.12-2.59-44.28-10.38-75.03-48.49-75.63-94.07-.3-22.47-.05-44.95-.09-67.43-.04-27.3-.11-54.61-.16-81.91h50Z" style="fill: #203761;"/>
        <path d="m371.85,277c-4.88-.96-9.79-1.76-14.62-2.92-43.21-10.33-73.83-48.1-74.37-92.42-.39-31.82-.1-63.65-.09-95.47,0-1.14.17-2.28.29-3.78h48.82c.12,2.17.34,4.27.34,6.36.02,29.49-.07,58.98.05,88.47.1,23.88,13.14,41.81,34.63,48.06,30.29,8.8,60.79-13.62,61.03-45.17.24-30.49.06-60.98.07-91.47,0-1.97,0-3.94,0-6.26h49.69v5.38c0,29.99.03,59.98,0,89.97-.07,49.22-32.31,88.24-80.59,97.61-2.75.53-5.49,1.08-8.24,1.63h-17Z" style="fill: #203761;"/>
        <path d="m497.85,277c-.09-1.66-.25-3.31-.25-4.97-.01-78.69-.01-157.37,0-236.06,0-1.66.16-3.31.25-4.97,16.33,0,32.67,0,49,0,.09,1.66.25,3.31.25,4.97.01,78.69.01,157.37,0,236.06,0,1.66-.16,3.31-.25,4.97h-49Z" style="fill: #203761;"/>
        <path d="m781.85,277c.05-26.96.12-53.92.14-80.89.02-31.63,0-63.25,0-94.88v-7.24h49.86v183h-50Z" style="fill: #203761;"/>
        <path d="m831.85,82c-14.46-.1-28.92-.21-43.37-.31-1.96-.01-3.92,0-6.63,0V31h50v51Z" style="fill: #203761;"/>
      </g>
    </g>
  </g>
  <g id="uuid-6778cb49-fbee-4ba1-a004-67603e0b13e0" data-name="Imagination Delivered">
    <g>
      <path d="m0,325.15h8.58v46.2H0v-46.2Z" style="fill: #313131;"/>
      <path d="m79.27,339.57c2.6,2.57,3.89,6.44,3.89,11.58v20.2h-8.25v-19.14c0-3.08-.68-5.4-2.05-6.96-1.36-1.56-3.32-2.34-5.87-2.34-2.77,0-4.99.91-6.67,2.74-1.67,1.83-2.51,4.43-2.51,7.82v17.89h-8.25v-19.14c0-3.08-.68-5.4-2.05-6.96-1.36-1.56-3.32-2.34-5.87-2.34-2.82,0-5.05.9-6.7,2.71-1.65,1.8-2.48,4.42-2.48,7.85v17.89h-8.25v-35.24h7.85v4.49c1.32-1.58,2.97-2.79,4.95-3.63s4.18-1.25,6.6-1.25c2.64,0,4.98.5,7.03,1.48,2.05.99,3.66,2.45,4.85,4.39,1.45-1.85,3.32-3.29,5.61-4.32,2.29-1.03,4.82-1.55,7.59-1.55,4.44,0,7.96,1.29,10.56,3.86Z" style="fill: #313131;"/>
      <path d="m123.06,339.43c2.75,2.49,4.12,6.24,4.12,11.25v20.66h-7.79v-4.29c-1.01,1.54-2.45,2.72-4.32,3.53-1.87.81-4.12,1.22-6.77,1.22s-4.95-.45-6.93-1.35-3.51-2.16-4.59-3.76c-1.08-1.61-1.62-3.42-1.62-5.44,0-3.17,1.18-5.71,3.53-7.62,2.35-1.91,6.06-2.87,11.12-2.87h9.11v-.53c0-2.46-.74-4.36-2.21-5.68-1.47-1.32-3.66-1.98-6.57-1.98-1.98,0-3.93.31-5.84.92s-3.53,1.47-4.85,2.57l-3.23-6.01c1.85-1.41,4.07-2.49,6.67-3.23,2.6-.75,5.35-1.12,8.25-1.12,5.19,0,9.16,1.24,11.91,3.73Zm-7.52,24.95c1.61-.95,2.74-2.3,3.4-4.06v-4.09h-8.51c-4.75,0-7.13,1.56-7.13,4.69,0,1.5.59,2.68,1.78,3.56,1.19.88,2.84,1.32,4.95,1.32s3.9-.47,5.51-1.42Z" style="fill: #313131;"/>
      <path d="m177.01,336.1v29.9c0,12.41-6.34,18.61-19.01,18.61-3.39,0-6.6-.43-9.64-1.29-3.04-.86-5.54-2.1-7.52-3.73l3.7-6.2c1.54,1.28,3.49,2.3,5.84,3.07,2.35.77,4.74,1.15,7.16,1.15,3.87,0,6.71-.88,8.51-2.64,1.8-1.76,2.71-4.44,2.71-8.05v-1.85c-1.41,1.54-3.12,2.71-5.15,3.5-2.02.79-4.25,1.19-6.67,1.19-3.34,0-6.37-.71-9.08-2.14-2.71-1.43-4.84-3.44-6.4-6.04-1.56-2.6-2.34-5.57-2.34-8.91s.78-6.3,2.34-8.88c1.56-2.57,3.7-4.56,6.4-5.97,2.71-1.41,5.73-2.11,9.08-2.11,2.55,0,4.87.42,6.96,1.25,2.09.84,3.84,2.11,5.25,3.83v-4.69h7.85Zm-11.12,23.86c2-1.87,3-4.3,3-7.29s-1-5.35-3-7.19c-2-1.85-4.57-2.77-7.69-2.77s-5.75.92-7.75,2.77c-2,1.85-3,4.25-3,7.19s1,5.42,3,7.29c2,1.87,4.59,2.8,7.75,2.8s5.69-.93,7.69-2.8Z" style="fill: #313131;"/>
      <path d="m192.19,328.88c-1.01-.95-1.52-2.12-1.52-3.53s.51-2.58,1.52-3.53c1.01-.95,2.27-1.42,3.76-1.42s2.75.45,3.76,1.35c1.01.9,1.52,2.04,1.52,3.4,0,1.45-.5,2.67-1.48,3.66-.99.99-2.26,1.49-3.8,1.49s-2.75-.47-3.76-1.42Zm-.4,7.23h8.25v35.24h-8.25v-35.24Z" style="fill: #313131;"/>
      <path d="m245.52,339.6c2.68,2.6,4.03,6.45,4.03,11.55v20.2h-8.25v-19.14c0-3.08-.73-5.4-2.18-6.96-1.45-1.56-3.52-2.34-6.2-2.34-3.04,0-5.43.91-7.19,2.74-1.76,1.83-2.64,4.46-2.64,7.89v17.82h-8.25v-35.24h7.85v4.55c1.36-1.63,3.08-2.86,5.15-3.7,2.07-.84,4.4-1.25,7-1.25,4.44,0,8.01,1.3,10.69,3.89Z" style="fill: #313131;"/>
      <path d="m289.37,339.43c2.75,2.49,4.12,6.24,4.12,11.25v20.66h-7.79v-4.29c-1.01,1.54-2.45,2.72-4.32,3.53-1.87.81-4.12,1.22-6.77,1.22s-4.95-.45-6.93-1.35-3.51-2.16-4.59-3.76c-1.08-1.61-1.62-3.42-1.62-5.44,0-3.17,1.18-5.71,3.53-7.62,2.35-1.91,6.06-2.87,11.12-2.87h9.11v-.53c0-2.46-.74-4.36-2.21-5.68-1.47-1.32-3.66-1.98-6.57-1.98-1.98,0-3.93.31-5.84.92s-3.53,1.47-4.85,2.57l-3.23-6.01c1.85-1.41,4.07-2.49,6.67-3.23,2.6-.75,5.35-1.12,8.25-1.12,5.19,0,9.16,1.24,11.91,3.73Zm-7.52,24.95c1.61-.95,2.74-2.3,3.4-4.06v-4.09h-8.51c-4.75,0-7.13,1.56-7.13,4.69,0,1.5.59,2.68,1.78,3.56,1.19.88,2.84,1.32,4.95,1.32s3.9-.47,5.51-1.42Z" style="fill: #313131;"/>
      <path d="m329.2,369.43c-.97.79-2.15,1.39-3.53,1.78-1.39.4-2.85.59-4.39.59-3.87,0-6.86-1.01-8.98-3.04-2.11-2.02-3.17-4.97-3.17-8.84v-16.96h-5.81v-6.6h5.81v-8.05h8.25v8.05h9.44v6.6h-9.44v16.76c0,1.72.42,3.03,1.25,3.93.84.9,2.05,1.35,3.63,1.35,1.85,0,3.39-.48,4.62-1.45l2.31,5.87Z" style="fill: #313131;"/>
      <path d="m340.36,328.88c-1.01-.95-1.52-2.12-1.52-3.53s.51-2.58,1.52-3.53c1.01-.95,2.27-1.42,3.76-1.42s2.75.45,3.76,1.35c1.01.9,1.52,2.04,1.52,3.4,0,1.45-.5,2.67-1.48,3.66-.99.99-2.26,1.49-3.8,1.49s-2.75-.47-3.76-1.42Zm-.4,7.23h8.25v35.24h-8.25v-35.24Z" style="fill: #313131;"/>
      <path d="m369.2,369.5c-2.86-1.54-5.09-3.68-6.7-6.44-1.61-2.75-2.41-5.86-2.41-9.34s.8-6.58,2.41-9.31c1.61-2.73,3.84-4.86,6.7-6.4,2.86-1.54,6.07-2.31,9.64-2.31s6.84.77,9.7,2.31c2.86,1.54,5.09,3.67,6.7,6.4,1.61,2.73,2.41,5.83,2.41,9.31s-.8,6.59-2.41,9.34c-1.61,2.75-3.84,4.9-6.7,6.44-2.86,1.54-6.09,2.31-9.7,2.31s-6.78-.77-9.64-2.31Zm17.16-7.79c1.98-2.02,2.97-4.69,2.97-7.99s-.99-5.96-2.97-7.99c-1.98-2.02-4.49-3.04-7.52-3.04s-5.53,1.01-7.49,3.04c-1.96,2.02-2.94,4.69-2.94,7.99s.98,5.96,2.94,7.99c1.96,2.02,4.45,3.04,7.49,3.04s5.54-1.01,7.52-3.04Z" style="fill: #313131;"/>
      <path d="m440.21,339.6c2.68,2.6,4.03,6.45,4.03,11.55v20.2h-8.25v-19.14c0-3.08-.73-5.4-2.18-6.96-1.45-1.56-3.52-2.34-6.2-2.34-3.04,0-5.43.91-7.19,2.74-1.76,1.83-2.64,4.46-2.64,7.89v17.82h-8.25v-35.24h7.85v4.55c1.36-1.63,3.08-2.86,5.15-3.7,2.07-.84,4.4-1.25,7-1.25,4.44,0,8.01,1.3,10.69,3.89Z" style="fill: #313131;"/>
      <path d="m481.66,325.15h20.2c4.93,0,9.31.96,13.13,2.87,3.83,1.91,6.8,4.62,8.91,8.12,2.11,3.5,3.17,7.54,3.17,12.11s-1.06,8.61-3.17,12.11c-2.11,3.5-5.08,6.2-8.91,8.12-3.83,1.91-8.21,2.87-13.13,2.87h-20.2v-46.2Zm19.8,38.94c3.39,0,6.37-.65,8.94-1.95,2.57-1.3,4.55-3.15,5.94-5.54,1.39-2.4,2.08-5.18,2.08-8.35s-.69-5.95-2.08-8.35c-1.39-2.4-3.37-4.25-5.94-5.54-2.57-1.3-5.56-1.95-8.94-1.95h-11.22v31.68h11.22Z" style="fill: #313131;"/>
      <path d="m572.34,356.36h-27.65c.48,2.6,1.75,4.65,3.8,6.17,2.05,1.52,4.59,2.28,7.62,2.28,3.87,0,7.06-1.28,9.57-3.83l4.42,5.08c-1.58,1.89-3.59,3.32-6.01,4.29-2.42.97-5.15,1.45-8.18,1.45-3.87,0-7.28-.77-10.23-2.31-2.95-1.54-5.23-3.68-6.83-6.44-1.61-2.75-2.41-5.86-2.41-9.34s.78-6.52,2.34-9.27c1.56-2.75,3.73-4.89,6.5-6.44,2.77-1.54,5.9-2.31,9.37-2.31s6.5.76,9.21,2.28c2.71,1.52,4.82,3.65,6.34,6.4,1.52,2.75,2.28,5.93,2.28,9.54,0,.57-.04,1.39-.13,2.44Zm-24.39-11.71c-1.83,1.56-2.94,3.64-3.33,6.24h20c-.35-2.55-1.43-4.62-3.23-6.2-1.8-1.58-4.05-2.38-6.73-2.38s-4.87.78-6.7,2.34Z" style="fill: #313131;"/>
      <path d="m584.35,322.37h8.25v48.97h-8.25v-48.97Z" style="fill: #313131;"/>
      <path d="m607.78,328.88c-1.01-.95-1.52-2.12-1.52-3.53s.5-2.58,1.52-3.53c1.01-.95,2.27-1.42,3.76-1.42s2.75.45,3.76,1.35c1.01.9,1.52,2.04,1.52,3.4,0,1.45-.49,2.67-1.48,3.66s-2.26,1.49-3.79,1.49-2.75-.47-3.76-1.42Zm-.4,7.23h8.25v35.24h-8.25v-35.24Z" style="fill: #313131;"/>
      <path d="m663.42,336.1l-15.11,35.24h-8.51l-15.11-35.24h8.58l10.96,26.14,11.29-26.14h7.92Z" style="fill: #313131;"/>
      <path d="m704.54,356.36h-27.65c.48,2.6,1.75,4.65,3.79,6.17,2.05,1.52,4.59,2.28,7.62,2.28,3.87,0,7.06-1.28,9.57-3.83l4.42,5.08c-1.58,1.89-3.59,3.32-6.01,4.29-2.42.97-5.15,1.45-8.18,1.45-3.87,0-7.28-.77-10.23-2.31-2.95-1.54-5.23-3.68-6.83-6.44-1.61-2.75-2.41-5.86-2.41-9.34s.78-6.52,2.34-9.27c1.56-2.75,3.73-4.89,6.5-6.44,2.77-1.54,5.9-2.31,9.37-2.31s6.5.76,9.21,2.28c2.71,1.52,4.82,3.65,6.34,6.4,1.52,2.75,2.28,5.93,2.28,9.54,0,.57-.04,1.39-.13,2.44Zm-24.39-11.71c-1.83,1.56-2.94,3.64-3.33,6.24h20c-.35-2.55-1.43-4.62-3.23-6.2-1.8-1.58-4.05-2.38-6.73-2.38s-4.87.78-6.7,2.34Z" style="fill: #313131;"/>
      <path d="m736.94,335.71v7.85c-.7-.13-1.34-.2-1.91-.2-3.21,0-5.72.94-7.52,2.81-1.8,1.87-2.71,4.57-2.71,8.08v17.09h-8.25v-35.24h7.85v5.15c2.38-3.7,6.56-5.54,12.54-5.54Z" style="fill: #313131;"/>
      <path d="m780.57,356.36h-27.65c.48,2.6,1.75,4.65,3.79,6.17,2.05,1.52,4.59,2.28,7.62,2.28,3.87,0,7.06-1.28,9.57-3.83l4.42,5.08c-1.58,1.89-3.59,3.32-6.01,4.29-2.42.97-5.15,1.45-8.18,1.45-3.87,0-7.28-.77-10.23-2.31-2.95-1.54-5.23-3.68-6.83-6.44-1.61-2.75-2.41-5.86-2.41-9.34s.78-6.52,2.34-9.27,3.73-4.89,6.5-6.44c2.77-1.54,5.9-2.31,9.37-2.31s6.5.76,9.21,2.28c2.71,1.52,4.82,3.65,6.34,6.4,1.52,2.75,2.28,5.93,2.28,9.54,0,.57-.04,1.39-.13,2.44Zm-24.39-11.71c-1.83,1.56-2.94,3.64-3.33,6.24h20c-.35-2.55-1.43-4.62-3.23-6.2-1.8-1.58-4.05-2.38-6.73-2.38s-4.87.78-6.7,2.34Z" style="fill: #313131;"/>
      <path d="m827.1,322.37v48.97h-7.92v-4.55c-1.36,1.67-3.05,2.93-5.05,3.76-2,.83-4.21,1.25-6.63,1.25-3.39,0-6.44-.75-9.14-2.24-2.71-1.5-4.83-3.62-6.37-6.37-1.54-2.75-2.31-5.91-2.31-9.47s.77-6.71,2.31-9.44c1.54-2.73,3.66-4.84,6.37-6.34,2.71-1.5,5.75-2.24,9.14-2.24,2.33,0,4.46.4,6.4,1.19,1.94.79,3.58,1.98,4.95,3.56v-18.08h8.25Zm-13.27,41.02c1.58-.9,2.84-2.19,3.76-3.86.92-1.67,1.39-3.61,1.39-5.81s-.46-4.13-1.39-5.81c-.92-1.67-2.18-2.96-3.76-3.86-1.58-.9-3.37-1.35-5.35-1.35s-3.76.45-5.35,1.35c-1.58.9-2.84,2.19-3.76,3.86-.92,1.67-1.39,3.61-1.39,5.81s.46,4.14,1.39,5.81c.92,1.67,2.18,2.96,3.76,3.86,1.58.9,3.37,1.35,5.35,1.35s3.76-.45,5.35-1.35Z" style="fill: #313131;"/>
    </g>
  </g>
</svg>